<?xml version="1.0" standalone="no"?>
<!DOCTYPE svg PUBLIC "-//W3C//DTD SVG 20010904//EN"
 "http://www.w3.org/TR/2001/REC-SVG-20010904/DTD/svg10.dtd">
<svg version="1.0" xmlns="http://www.w3.org/2000/svg"
 width="512.000000pt" height="512.000000pt" viewBox="0 0 512.000000 512.000000"
 preserveAspectRatio="xMidYMid meet">
<metadata>
Created by potrace 1.14, written by Peter Selinger 2001-2017
</metadata>
<g transform="translate(0.000000,512.000000) scale(0.100000,-0.100000)"
fill="#000000" stroke="none">
<path d="M1488 3903 l-3 -68 -47 0 c-26 0 -50 -4 -55 -8 -4 -5 -8 -29 -8 -55
l0 -47 -67 -3 -68 -3 0 -454 0 -455 -69 0 -68 0 0 38 c-1 83 3 79 -58 77 l-55
-2 0 68 0 69 -82 0 c-225 2 -433 -1 -437 -6 -3 -2 -5 -89 -5 -192 l1 -187 56
0 57 0 0 -70 0 -70 67 0 68 0 1 -55 c1 -30 2 -60 3 -67 1 -8 22 -12 62 -12 34
0 65 -4 68 -10 4 -6 6 -30 6 -53 -1 -24 2 -45 6 -48 4 -3 60 -5 123 -3 103 2
116 0 117 -15 1 -9 1 -41 2 -69 l1 -53 68 0 68 0 0 -125 0 -125 -68 0 -68 0
-1 -58 c-1 -31 -1 -62 -2 -69 -1 -7 -20 -10 -56 -9 l-55 2 0 -192 c0 -145 3
-193 13 -196 6 -2 118 -3 247 -3 l235 1 3 56 3 57 67 3 67 3 1 35 c1 19 2 49
3 66 l1 31 63 0 c34 0 64 -4 67 -8 3 -4 5 -60 4 -123 0 -64 2 -116 5 -117 21
-3 358 -4 369 -1 7 3 12 24 12 58 l0 54 68 0 69 0 0 48 c2 101 -37 89 301 90
163 0 306 -1 318 -3 18 -4 20 -11 19 -70 l-2 -65 68 0 68 0 3 -57 3 -57 190 0
190 0 0 122 c0 139 -5 132 90 129 l50 -2 -1 -67 0 -68 68 0 68 0 0 -57 0 -58
123 0 122 1 3 56 3 57 67 3 67 3 3 68 3 67 50 -3 c27 -2 52 -1 54 4 3 4 6 36
6 71 l1 64 67 -1 66 0 2 60 c1 33 2 63 2 67 1 4 31 8 69 10 l67 3 0 50 c-1 58
5 62 81 60 l54 -2 0 331 0 331 -67 0 -68 0 -1 245 c-1 135 -2 253 -3 262 -1
14 -11 16 -66 14 -72 -2 -69 -5 -66 72 l2 42 -128 0 -128 0 2 -55 c1 -35 -3
-55 -10 -56 -7 -1 -37 -1 -67 -2 l-55 -1 -3 262 -2 262 -68 0 -69 0 1 57 1 57
-55 0 -55 1 -3 68 -3 67 -1114 0 -1114 0 -3 -67z"/>
</g>
</svg>
